<svg width="43" height="54" viewBox="0 0 43 54" fill="none" xmlns="http://www.w3.org/2000/svg">
<path d="M25.0666 43.6542C25.0667 44.3845 25.0667 45.0392 25.0667 45.6836C25.3826 45.7766 25.4838 45.5507 25.6195 45.4279C28.0632 43.2172 30.4983 40.9969 32.9438 38.7881C33.2736 38.4903 33.3944 38.1493 33.3927 37.7148C33.3819 34.9764 33.3729 32.2378 33.3955 29.4995C33.4001 28.9452 33.1361 28.6135 32.7588 28.2839C27.0312 23.2799 21.3084 18.2704 15.5845 13.2622C13.1041 11.092 10.6229 8.92291 8.14547 6.74941C7.961 6.58757 7.71836 6.46145 7.68313 6.15031C7.96433 5.75533 8.41884 5.55913 8.80714 5.28881C10.4922 4.11571 12.1707 2.93116 13.8894 1.80874C18.1268 -0.958512 24.257 -0.499266 28.0574 2.83532C32.1925 6.46367 36.3275 10.0922 40.4637 13.7194C43.321 16.225 43.7891 19.3614 41.741 22.5519C40.6911 24.1875 39.3021 25.5218 37.8289 26.7751C37.4595 27.0893 37.1991 27.043 36.8519 26.7404C34.3291 24.5419 31.799 22.3515 29.2542 20.1784C28.8035 19.7935 28.7798 19.5234 29.1898 19.0776C30.4597 17.6971 31.6812 16.2723 32.9322 14.8742C33.5038 14.2353 34.2784 13.9053 35.1864 13.5318C34.5749 12.975 34.0336 12.4662 33.4756 11.9766C30.7126 9.5523 27.9446 7.13359 25.1793 4.71183C22.6828 2.52541 18.7297 2.32891 15.9988 4.24969C14.9884 4.96038 13.9666 5.65497 12.9904 6.32898C13.001 6.69424 13.2255 6.80364 13.3892 6.94768C21.1162 13.7461 28.8437 20.5441 36.5804 27.3315C36.9357 27.6432 37.0951 27.9623 37.0927 28.4383C37.0751 31.8613 37.0772 35.2845 37.0858 38.7075C37.0868 39.1144 36.9866 39.4304 36.676 39.714C31.7726 44.1925 26.8766 48.6792 21.9768 53.1615C21.8869 53.2437 21.7695 53.296 21.5348 53.4448C21.4722 52.6748 21.3722 51.9918 21.3683 51.3081C21.3436 46.9981 21.3293 42.6878 21.3422 38.3777C21.344 37.7643 21.1552 37.351 20.6929 36.9449C15.1698 32.0931 9.66451 27.221 4.15388 22.355C4.04309 22.2572 3.92401 22.1687 3.70874 21.9953C3.70874 22.4148 3.70869 22.729 3.70875 23.0432C3.70933 26.1113 3.72816 29.1795 3.69668 32.2472C3.68953 32.9443 3.91652 33.4239 4.4257 33.8898C9.64361 38.6639 14.837 43.4647 20.0565 48.2371C20.5659 48.7029 20.7655 48.5262 20.7206 49.2433C20.6581 50.241 20.7348 51.8676 20.5898 52.8653C20.2016 52.8557 20.04 52.6012 19.8437 52.4208C13.4418 46.537 7.04501 40.6477 0.641465 34.7657C0.24888 34.405 0.0157564 34.0356 0.0169843 33.4621C0.0298429 27.4528 0.015148 21.4433 0.0134371 15.4339C0.0133698 15.1915 -0.0566154 14.9294 0.123512 14.7001C0.418395 14.6727 0.579589 14.894 0.760633 15.0531C5.00696 18.785 9.25079 22.5197 13.4927 26.2566C17.1637 29.4905 20.8255 32.7348 24.5099 35.9534C24.9144 36.3068 25.08 36.6633 25.0748 37.1888C25.0537 39.3186 25.0664 41.4487 25.0666 43.6542ZM38.4508 16.3004C37.4344 15.3133 37.2963 15.2623 36.1879 15.9301C34.796 16.7689 33.9772 18.1849 32.7422 19.359C34.1314 20.5471 35.4441 21.6811 36.7721 22.7967C37.0732 23.0496 37.288 22.7687 37.475 22.5739C38.1235 21.8986 38.7095 21.1715 39.272 20.4222C39.7301 19.8121 39.8438 19.1522 39.7409 18.4184C39.6209 17.5631 39.1085 16.9506 38.4508 16.3004Z" fill="black"/>
<g clip-path="url(#clip0_65_3935)">
<path fill-rule="evenodd" clip-rule="evenodd" d="M22.0374 21.345H16.6219C16.2556 21.345 15.9148 21.4926 15.7199 21.7685L14.1597 23.5928C13.9079 23.9496 13.9515 24.406 14.2667 24.7207L18.5213 28.6967C18.9479 29.1216 19.6965 29.1174 20.1183 28.6887L24.3835 24.622C24.6971 24.303 24.7344 23.8373 24.474 23.4824L22.9303 21.7552C22.7338 21.4869 22.3978 21.345 22.0374 21.345Z" fill="#85CCFF"/>
</g>
<defs>
<clipPath id="clip0_65_3935">
<rect width="10.6498" height="9.58478" fill="white" transform="translate(13.9968 20.3865)"/>
</clipPath>
</defs>
</svg>
